<svg xmlns="http://www.w3.org/2000/svg" width="720" height="520" viewBox="0 0 720 520" fill="none" role="img" aria-labelledby="t3">
  <title id="t3">Marqq AI co-pilot chat with marketing context</title>
  <defs>
    <linearGradient id="a3" x1="0" y1="0" x2="1" y2="0"><stop stop-color="#fb923c"/><stop offset="1" stop-color="#ea580c"/></linearGradient>
    <filter id="s3"><feDropShadow dx="0" dy="6" stdDeviation="10" flood-opacity="0.08"/></filter>
  </defs>
  <rect width="720" height="520" rx="14" fill="#fafaf9"/>
  <rect x="20" y="20" width="680" height="480" rx="12" fill="#fff" filter="url(#s3)"/>
  <rect x="40" y="40" width="160" height="12" rx="4" fill="#1c1917"/>
  <rect x="40" y="64" width="240" height="8" rx="3" fill="#a8a29e"/>
  <rect x="520" y="44" width="160" height="36" rx="8" fill="#f5f5f4"/>
  <rect x="48" y="120" width="420" height="72" rx="12" fill="#f5f5f4"/>
  <rect x="64" y="136" width="320" height="10" rx="3" fill="#44403c"/>
  <rect x="64" y="154" width="280" height="8" rx="3" fill="#78716c"/>
  <rect x="500" y="210" width="180" height="64" rx="12" fill="url(#a3)" fill-opacity="0.15"/>
  <rect x="516" y="226" width="140" height="10" rx="3" fill="#1c1917"/>
  <rect x="516" y="244" width="120" height="8" rx="3" fill="#57534e"/>
  <rect x="48" y="298" width="460" height="88" rx="12" fill="#fafaf9"/>
  <rect x="64" y="314" width="400" height="10" rx="3" fill="#292524"/>
  <rect x="64" y="332" width="360" height="8" rx="3" fill="#78716c"/>
  <rect x="64" y="348" width="300" height="8" rx="3" fill="#78716c"/>
  <rect x="500" y="404" width="180" height="52" rx="10" fill="url(#a3)"/>
  <rect x="40" y="468" width="560" height="14" rx="7" fill="#e7e5e4"/>
</svg>
