<svg xmlns="http://www.w3.org/2000/svg" width="960" height="540" viewBox="0 0 960 540" fill="none" role="img" aria-labelledby="t1">
  <title id="t1">Marqq AI dashboard showing module overview and metrics</title>
  <defs>
    <linearGradient id="bg" x1="0" y1="0" x2="1" y2="1">
      <stop stop-color="#fafaf9"/><stop offset="1" stop-color="#f5f5f4"/>
    </linearGradient>
    <linearGradient id="accent" x1="0" y1="0" x2="1" y2="0">
      <stop stop-color="#fb923c"/><stop offset="1" stop-color="#ea580c"/>
    </linearGradient>
    <filter id="sh" x="-20%" y="-20%" width="140%" height="140%">
      <feDropShadow dx="0" dy="8" stdDeviation="12" flood-opacity="0.12"/>
    </filter>
  </defs>
  <rect width="960" height="540" rx="16" fill="url(#bg)"/>
  <rect x="0" y="0" width="960" height="44" fill="#fff" fill-opacity="0.95"/>
  <circle cx="24" cy="22" r="6" fill="#ef4444"/><circle cx="44" cy="22" r="6" fill="#eab308"/><circle cx="64" cy="22" r="6" fill="#22c55e"/>
  <rect x="320" y="14" width="320" height="16" rx="8" fill="#e7e5e4"/>
  <rect x="0" y="44" width="200" height="496" fill="#fff" fill-opacity="0.9"/>
  <rect x="16" y="64" width="168" height="36" rx="8" fill="url(#accent)" fill-opacity="0.15"/>
  <rect x="28" y="76" width="72" height="12" rx="4" fill="url(#accent)"/>
  <rect x="16" y="116" width="168" height="32" rx="6" fill="#f5f5f4"/>
  <rect x="16" y="156" width="168" height="32" rx="6" fill="#f5f5f4"/>
  <rect x="16" y="196" width="168" height="32" rx="6" fill="#f5f5f4"/>
  <rect x="216" y="64" width="720" height="120" rx="12" fill="#fff" filter="url(#sh)"/>
  <rect x="236" y="84" width="200" height="14" rx="4" fill="#1c1917"/>
  <rect x="236" y="108" width="420" height="10" rx="4" fill="#a8a29e"/>
  <rect x="236" y="136" width="120" height="32" rx="8" fill="url(#accent)"/>
  <rect x="216" y="200" width="340" height="140" rx="12" fill="#fff" filter="url(#sh)"/>
  <rect x="236" y="220" width="100" height="10" rx="3" fill="#57534e"/>
  <rect x="236" y="242" width="280" height="8" rx="3" fill="#d6d3d1"/>
  <rect x="236" y="258" width="240" height="8" rx="3" fill="#d6d3d1"/>
  <rect x="236" y="290" width="120" height="36" rx="8" fill="url(#accent)" fill-opacity="0.2"/>
  <rect x="568" y="200" width="368" height="300" rx="12" fill="#fff" filter="url(#sh)"/>
  <rect x="588" y="220" width="120" height="10" rx="3" fill="#1c1917"/>
  <rect x="588" y="248" width="328" height="64" rx="8" fill="#fafaf9"/>
  <rect x="588" y="324" width="328" height="64" rx="8" fill="#fafaf9"/>
  <rect x="588" y="400" width="328" height="64" rx="8" fill="#fafaf9"/>
  <rect x="216" y="356" width="340" height="144" rx="12" fill="#fff" filter="url(#sh)"/>
  <rect x="236" y="376" width="140" height="10" rx="3" fill="#57534e"/>
  <path d="M236 410 L280 368 L320 392 L360 340 L400 380 L440 350 L480 400" stroke="url(#accent)" stroke-width="3" fill="none" stroke-linecap="round" stroke-linejoin="round"/>
</svg>
