<svg xmlns="http://www.w3.org/2000/svg" width="800" height="480" viewBox="0 0 800 480" fill="none" role="img" aria-labelledby="t2">
  <title id="t2">Marqq AI marketing modules grid interface</title>
  <defs>
    <linearGradient id="g2" x1="0" y1="0" x2="1" y2="1"><stop stop-color="#fff"/><stop offset="1" stop-color="#fafaf9"/></linearGradient>
    <linearGradient id="a2" x1="0" y1="0" x2="1" y2="0"><stop stop-color="#fb923c"/><stop offset="1" stop-color="#ea580c"/></linearGradient>
    <filter id="s2"><feDropShadow dx="0" dy="6" stdDeviation="10" flood-opacity="0.1"/></filter>
  </defs>
  <rect width="800" height="480" rx="14" fill="url(#g2)"/>
  <rect x="24" y="24" width="280" height="18" rx="6" fill="#e7e5e4"/>
  <rect x="24" y="56" width="752" height="400" rx="12" fill="#fff" filter="url(#s2)"/>
  <g transform="translate(48,88)">
    <rect width="220" height="140" rx="10" fill="#fafaf9" stroke="#fed7aa" stroke-width="1"/>
    <rect x="16" y="16" width="80" height="10" rx="3" fill="#1c1917"/>
    <rect x="16" y="36" width="180" height="8" rx="3" fill="#a8a29e"/>
    <rect x="16" y="100" width="88" height="28" rx="6" fill="url(#a2)" fill-opacity="0.25"/>
    <rect x="248" y="0" width="220" height="140" rx="10" fill="#fafaf9" stroke="#fed7aa" stroke-width="1"/>
    <rect x="264" y="16" width="100" height="10" rx="3" fill="#1c1917"/>
    <rect x="264" y="36" width="160" height="8" rx="3" fill="#a8a29e"/>
    <rect x="264" y="100" width="88" height="28" rx="6" fill="url(#a2)" fill-opacity="0.25"/>
    <rect x="496" y="0" width="220" height="140" rx="10" fill="#fafaf9" stroke="#fed7aa" stroke-width="1"/>
    <rect x="512" y="16" width="90" height="10" rx="3" fill="#1c1917"/>
    <rect x="512" y="36" width="170" height="8" rx="3" fill="#a8a29e"/>
    <rect x="0" y="164" width="220" height="140" rx="10" fill="#fff7ed" stroke="#fb923c" stroke-width="1.5"/>
    <rect x="16" y="180" width="110" height="10" rx="3" fill="#1c1917"/>
    <rect x="16" y="200" width="188" height="8" rx="3" fill="#78716c"/>
    <rect x="16" y="256" width="96" height="32" rx="8" fill="url(#a2)"/>
    <rect x="248" y="164" width="220" height="140" rx="10" fill="#fafaf9" stroke="#fed7aa" stroke-width="1"/>
    <rect x="496" y="164" width="220" height="140" rx="10" fill="#fafaf9" stroke="#fed7aa" stroke-width="1"/>
  </g>
</svg>
