<?xml version="1.0" encoding="UTF-8"?>
<svg version="1.1" xmlns="http://www.w3.org/2000/svg" width="127" height="126" viewBox="0 0 127 126">
<path d="M0 0 C41.91 0 83.82 0 127 0 C127 41.58 127 83.16 127 126 C85.09 126 43.18 126 0 126 C0 84.42 0 42.84 0 0 Z " fill="#FDFDFD" transform="translate(0,0)"/>
<path d="M0 0 C5.28 0 10.56 0 16 0 C16.03738281 2.17980469 16.07476562 4.35960938 16.11328125 6.60546875 C16.15955248 8.72706885 16.21076546 10.84849642 16.26245117 12.9699707 C16.29561259 14.43926422 16.32367178 15.90868244 16.34643555 17.37817383 C16.38014519 19.49614368 16.43246433 21.61297995 16.48828125 23.73046875 C16.51446533 25.00301514 16.54064941 26.27556152 16.56762695 27.58666992 C17.02415798 31.19071299 17.82538315 33.12217372 20 36 C24.37803902 38.18901951 30.31775232 37.184991 35.125 37.1875 C36.94257812 37.20586914 36.94257812 37.20586914 38.796875 37.22460938 C49.72748143 37.24246984 59.60099796 35.98110803 67.9140625 28.2109375 C71.69541017 24.02979977 74.78344557 19.48000061 77.73828125 14.6875 C78.36283203 13.8521875 78.36283203 13.8521875 79 13 C79.66 13 80.32 13 81 13 C78.66666667 22.33333333 76.33333333 31.66666667 74 41 C44.63 41 15.26 41 -15 41 C-15 40.34 -15 39.68 -15 39 C-13.3767313 38.3291288 -11.75132422 37.66342971 -10.125 37 C-9.22007813 36.62875 -8.31515625 36.2575 -7.3828125 35.875 C-5 35 -5 35 -3 35 C-0.75509807 27.69950591 -0.56765825 20.60197359 -0.375 13 C-0.33632813 11.74832031 -0.29765625 10.49664062 -0.2578125 9.20703125 C-0.1641092 6.13824812 -0.08099132 3.06914493 0 0 Z " fill="#060606" transform="translate(31,77)"/>
<path d="M0 0 C26.4 0 52.8 0 80 0 C89 22 89 22 89 24 C85.5124176 22.54812098 83.73464566 20.72942368 81.375 17.8125 C73.80184668 9.1514904 65.63586177 3.93874226 54 3 C45.99121524 2.69541236 38.0160694 2.86565247 30 3 C29.67 15.54 29.34 28.08 29 41 C23.72 41 18.44 41 13 41 C12.97421875 38.74800781 12.9484375 36.49601562 12.921875 34.17578125 C12.88341582 31.98465703 12.83826852 29.79376508 12.79248047 27.6027832 C12.7643283 26.08499315 12.7430851 24.56705807 12.72900391 23.04907227 C12.70749277 20.86138979 12.66080772 18.67544035 12.609375 16.48828125 C12.58842773 15.17384033 12.56748047 13.85939941 12.54589844 12.50512695 C11.92232962 8.50129086 10.84096338 6.83302033 8 4 C5.91365324 3.00243506 5.91365324 3.00243506 3.75 2.6875 C1.89375 2.3471875 1.89375 2.3471875 0 2 C0 1.34 0 0.68 0 0 Z " fill="#050505" transform="translate(18,14)"/>
<path d="M0 0 C0.66 0 1.32 0 2 0 C-0.33333333 9.33333333 -2.66666667 18.66666667 -5 28 C-34.37 28 -63.74 28 -94 28 C-93.67 27.34 -93.34 26.68 -93 26 C-79.47 26 -65.94 26 -52 26 C-52 25.67 -52 25.34 -52 25 C-51.06317383 24.970271 -51.06317383 24.970271 -50.10742188 24.93994141 C-47.23790619 24.84383068 -44.36903453 24.73450513 -41.5 24.625 C-40.02660156 24.57859375 -40.02660156 24.57859375 -38.5234375 24.53125 C-28.30448982 24.12249209 -18.8195582 22.43950542 -11.0859375 15.2109375 C-7.30458983 11.02979977 -4.21655443 6.48000061 -1.26171875 1.6875 C-0.63716797 0.8521875 -0.63716797 0.8521875 0 0 Z " fill="#242424" transform="translate(110,90)"/>
<path d="M0 0 C26.4 0 52.8 0 80 0 C89 22 89 22 89 24 C85.5124176 22.54812098 83.73464566 20.72942368 81.375 17.8125 C73.46623995 8.76767497 65.83243818 4.94734484 54 3 C54 2.67 54 2.34 54 2 C36.18 2 18.36 2 0 2 C0 1.34 0 0.68 0 0 Z " fill="#181818" transform="translate(18,14)"/>
<path d="M0 0 C3.96 0 7.92 0 12 0 C12 2.64 12 5.28 12 8 C13.65 8 15.3 8 17 8 C17 8.66 17 9.32 17 10 C11.39 10 5.78 10 0 10 C0 6.7 0 3.4 0 0 Z " fill="#EBEBEB" transform="translate(51,62)"/>
<path d="M0 0 C2.31 0 4.62 0 7 0 C7 0.66 7 1.32 7 2 C5.35 2 3.7 2 2 2 C2 2.66 2 3.32 2 4 C3.65 4 5.3 4 7 4 C7 4.66 7 5.32 7 6 C5.35 6 3.7 6 2 6 C2 6.66 2 7.32 2 8 C3.98 8 5.96 8 8 8 C8 8.66 8 9.32 8 10 C5.36 10 2.72 10 0 10 C0 6.7 0 3.4 0 0 Z " fill="#464646" transform="translate(51,62)"/>
<path d="M0 0 C2.31 0 4.62 0 7 0 C7 0.66 7 1.32 7 2 C5.35 2 3.7 2 2 2 C2 2.66 2 3.32 2 4 C3.65 4 5.3 4 7 4 C7 4.66 7 5.32 7 6 C5.35 6 3.7 6 2 6 C2 6.66 2 7.32 2 8 C3.98 8 5.96 8 8 8 C8 8.66 8 9.32 8 10 C5.36 10 2.72 10 0 10 C0 6.7 0 3.4 0 0 Z " fill="#464646" transform="translate(69,62)"/>
<path d="M0 0 C2.31 0 4.62 0 7 0 C7 0.66 7 1.32 7 2 C5.35 2 3.7 2 2 2 C2 2.66 2 3.32 2 4 C3.65 4 5.3 4 7 4 C7 4.66 7 5.32 7 6 C5.35 6 3.7 6 2 6 C2 6.66 2 7.32 2 8 C3.98 8 5.96 8 8 8 C8 8.66 8 9.32 8 10 C5.36 10 2.72 10 0 10 C0 6.7 0 3.4 0 0 Z " fill="#454545" transform="translate(107,62)"/>
<path d="M0 0 C0.66 0 1.32 0 2 0 C2 1.32 2 2.64 2 4 C3.65 4 5.3 4 7 4 C7 2.68 7 1.36 7 0 C7.66 0 8.32 0 9 0 C9 3.3 9 6.6 9 10 C8.34 10 7.68 10 7 10 C7 8.68 7 7.36 7 6 C5.35 6 3.7 6 2 6 C2 7.32 2 8.64 2 10 C1.34 10 0.68 10 0 10 C0 6.7 0 3.4 0 0 Z " fill="#393939" transform="translate(26,62)"/>
<path d="M0 0 C0.99 0 1.98 0 3 0 C6.125 6.625 6.125 6.625 5 10 C2.69 9.34 0.38 8.68 -2 8 C-2.33 8.66 -2.66 9.32 -3 10 C-2.49287967 6.28111761 -1.88391785 3.26545761 0 0 Z " fill="#5F5F5F" transform="translate(91,62)"/>
<path d="M0 0 C2.31 0 4.62 0 7 0 C7 0.66 7 1.32 7 2 C5.35 2 3.7 2 2 2 C2 2.66 2 3.32 2 4 C3.32 4 4.64 4 6 4 C6 4.66 6 5.32 6 6 C4.68 6 3.36 6 2 6 C2 6.66 2 7.32 2 8 C3.65 8 5.3 8 7 8 C7 8.66 7 9.32 7 10 C4.69 10 2.38 10 0 10 C0 6.7 0 3.4 0 0 Z " fill="#3E3E3E" transform="translate(38,62)"/>
<path d="M0 0 C1.66666667 1.66666667 3.33333333 3.33333333 5 5 C5.99 3.35 6.98 1.7 8 0 C9 3 9 3 8.22265625 4.82421875 C7.1484375 6.54947917 6.07421875 8.27473958 5 10 C1.55783328 7.3401439 1.00495326 4.09711714 0 0 Z " fill="#282828" transform="translate(78,62)"/>
<path d="M0 0 C2.64 0 5.28 0 8 0 C8 0.66 8 1.32 8 2 C7.01 2 6.02 2 5 2 C5 4.64 5 7.28 5 10 C4.34 10 3.68 10 3 10 C3 7.36 3 4.72 3 2 C2.01 2 1.02 2 0 2 C0 1.34 0 0.68 0 0 Z " fill="#484848" transform="translate(17,62)"/>
<path d="M0 0 C0.66 0 1.32 0 2 0 C2 2.64 2 5.28 2 8 C3.65 8 5.3 8 7 8 C7 8.66 7 9.32 7 10 C4.69 10 2.38 10 0 10 C0 6.7 0 3.4 0 0 Z " fill="#3F3F3F" transform="translate(61,62)"/>
<path d="M0 0 C2.97 0 5.94 0 9 0 C9 0.66 9 1.32 9 2 C7.68 2 6.36 2 5 2 C5 4.31 5 6.62 5 9 C4.67 9 4.34 9 4 9 C4 6.69 4 4.38 4 2 C2.68 2 1.36 2 0 2 C0 1.34 0 0.68 0 0 Z " fill="#393939" transform="translate(97,62)"/>
<path d="M0 0 C2.31 0 4.62 0 7 0 C7.33 1.32 7.66 2.64 8 4 C5.36 3.34 2.72 2.68 0 2 C-0.33 2.66 -0.66 3.32 -1 4 C-0.67 2.68 -0.34 1.36 0 0 Z " fill="#3A3A3A" transform="translate(89,68)"/>
</svg>
